<svg width="344" height="350" viewBox="0 0 344 350" fill="none" xmlns="http://www.w3.org/2000/svg">
<g clip-path="url(#clip0_408_48)">
<g filter="url(#filter0_di_408_48)">
<path d="M324.583 340H110.456C104.977 340 99.0415 339.391 92.6496 338.174C86.41 336.804 80.1703 334.75 73.9306 332.01C67.8431 329.271 61.9839 325.77 56.353 321.509C50.7221 317.096 45.6999 311.845 41.2865 305.758C37.0252 299.518 33.601 292.365 31.0138 284.299C28.4267 276.081 27.1331 266.874 27.1331 256.678V95.9679C27.1331 90.4891 27.7418 84.6299 28.9593 78.3903C30.329 71.9984 32.3835 65.7587 35.1229 59.6712C37.8623 53.4316 41.4387 47.4963 45.8521 41.8653C50.2655 36.2344 55.516 31.2883 61.6035 27.0271C67.8431 22.6137 74.9959 19.1134 83.0618 16.5262C91.1278 13.939 100.259 12.6454 110.456 12.6454H324.583V71.9984H110.456C102.694 71.9984 96.7587 74.0529 92.6496 78.162C88.5406 82.271 86.4861 88.3585 86.4861 96.4244V256.678C86.4861 264.287 88.5406 270.222 92.6496 274.483C96.9109 278.592 102.846 280.647 110.456 280.647H324.583V340Z" fill="white"/>
</g>
<g filter="url(#filter1_di_408_48)">
<path d="M307.357 142.93C307.357 151.046 306.354 158.296 304.348 164.68C302.342 171.063 299.606 176.717 296.14 181.642C292.766 186.475 288.845 190.624 284.376 194.09C279.908 197.555 275.211 200.428 270.287 202.708C265.454 204.896 260.529 206.492 255.514 207.495C250.589 208.498 245.938 209 241.561 209L315.838 273.155H260.848L186.708 209H161.128V173.434H241.561C246.029 173.07 250.088 172.158 253.735 170.698C257.474 169.148 260.666 167.096 263.311 164.543C266.046 161.989 268.144 158.934 269.603 155.378C271.062 151.73 271.792 147.581 271.792 142.93V120.496C271.792 118.49 271.518 116.985 270.971 115.982C270.515 114.888 269.877 114.113 269.056 113.657C268.326 113.11 267.506 112.79 266.594 112.699C265.773 112.608 264.998 112.562 264.268 112.562H146.902V273.155H111.336V94.9164C111.336 92.4542 111.792 90.1287 112.704 87.9401C113.616 85.7514 114.847 83.8363 116.397 82.1949C118.039 80.5534 119.954 79.2766 122.143 78.3647C124.331 77.4528 126.702 76.9968 129.256 76.9968H264.268C272.202 76.9968 278.905 78.4559 284.376 81.3741C289.848 84.2011 294.271 87.8033 297.645 92.1806C301.11 96.4667 303.573 101.118 305.032 106.133C306.582 111.149 307.357 115.845 307.357 120.223V142.93Z" fill="white"/>
</g>
</g>
<defs>
<filter id="filter0_di_408_48" x="19.1333" y="8.64551" width="313.45" height="343.354" filterUnits="userSpaceOnUse" color-interpolation-filters="sRGB">
<feFlood flood-opacity="0" result="BackgroundImageFix"/>
<feColorMatrix in="SourceAlpha" type="matrix" values="0 0 0 0 0 0 0 0 0 0 0 0 0 0 0 0 0 0 127 0" result="hardAlpha"/>
<feOffset dy="4"/>
<feGaussianBlur stdDeviation="4"/>
<feComposite in2="hardAlpha" operator="out"/>
<feColorMatrix type="matrix" values="0 0 0 0 0 0 0 0 0 0 0 0 0 0 0 0 0 0 0.35 0"/>
<feBlend mode="normal" in2="BackgroundImageFix" result="effect1_dropShadow_408_48"/>
<feBlend mode="normal" in="SourceGraphic" in2="effect1_dropShadow_408_48" result="shape"/>
<feColorMatrix in="SourceAlpha" type="matrix" values="0 0 0 0 0 0 0 0 0 0 0 0 0 0 0 0 0 0 127 0" result="hardAlpha"/>
<feOffset dy="-4"/>
<feGaussianBlur stdDeviation="4"/>
<feComposite in2="hardAlpha" operator="arithmetic" k2="-1" k3="1"/>
<feColorMatrix type="matrix" values="0 0 0 0 0 0 0 0 0 0 0 0 0 0 0 0 0 0 0.5 0"/>
<feBlend mode="normal" in2="shape" result="effect2_innerShadow_408_48"/>
</filter>
<filter id="filter1_di_408_48" x="103.336" y="72.9966" width="220.502" height="212.158" filterUnits="userSpaceOnUse" color-interpolation-filters="sRGB">
<feFlood flood-opacity="0" result="BackgroundImageFix"/>
<feColorMatrix in="SourceAlpha" type="matrix" values="0 0 0 0 0 0 0 0 0 0 0 0 0 0 0 0 0 0 127 0" result="hardAlpha"/>
<feOffset dy="4"/>
<feGaussianBlur stdDeviation="4"/>
<feComposite in2="hardAlpha" operator="out"/>
<feColorMatrix type="matrix" values="0 0 0 0 0 0 0 0 0 0 0 0 0 0 0 0 0 0 0.35 0"/>
<feBlend mode="normal" in2="BackgroundImageFix" result="effect1_dropShadow_408_48"/>
<feBlend mode="normal" in="SourceGraphic" in2="effect1_dropShadow_408_48" result="shape"/>
<feColorMatrix in="SourceAlpha" type="matrix" values="0 0 0 0 0 0 0 0 0 0 0 0 0 0 0 0 0 0 127 0" result="hardAlpha"/>
<feOffset dy="-4"/>
<feGaussianBlur stdDeviation="4"/>
<feComposite in2="hardAlpha" operator="arithmetic" k2="-1" k3="1"/>
<feColorMatrix type="matrix" values="0 0 0 0 0 0 0 0 0 0 0 0 0 0 0 0 0 0 0.5 0"/>
<feBlend mode="normal" in2="shape" result="effect2_innerShadow_408_48"/>
</filter>
<clipPath id="clip0_408_48">
<rect width="343.137" height="350" fill="white"/>
</clipPath>
</defs>
</svg>
